ply
format ascii 1.0
comment Created by Open Asset Import Library - http://assimp.sf.net (v3.2.0)
element vertex 96
property float x
property float y
property float z
property float r
property float g
property float b
property float a
element face 48
property list uchar int vertex_index
end_header
634249 85.8316 -5.63893e+06 1 0.6 0 1
634251 85.8316 -5.63893e+06 1 0.6 0 1
634250 85.8316 -5.63893e+06 1 0.6 0 1
634250 85.8316 -5.63893e+06 1 0.6 0 1
634249 95.5473 -5.63894e+06 1 0.6 0 1
634251 95.5473 -5.63894e+06 1 0.6 0 1
634250 95.5473 -5.63894e+06 1 0.6 0 1
634250 95.5473 -5.63894e+06 1 0.6 0 1
634259 89.6441 -5.63892e+06 1 0.6 0 1
634261 89.6441 -5.63892e+06 1 0.6 0 1
634260 89.6441 -5.63892e+06 1 0.6 0 1
634260 89.6441 -5.63892e+06 1 0.6 0 1
634259 94.7976 -5.63893e+06 1 0.6 0 1
634261 94.7976 -5.63893e+06 1 0.6 0 1
634260 94.7976 -5.63893e+06 1 0.6 0 1
634260 94.7976 -5.63893e+06 1 0.6 0 1
634259 96.314 -5.63894e+06 1 0.6 0 1
634261 96.314 -5.63894e+06 1 0.6 0 1
634260 96.314 -5.63894e+06 1 0.6 0 1
634260 96.314 -5.63894e+06 1 0.6 0 1
634259 94.1636 -5.63895e+06 1 0.6 0 1
634261 94.1636 -5.63895e+06 1 0.6 0 1
634260 94.1636 -5.63895e+06 1 0.6 0 1
634260 94.1636 -5.63895e+06 1 0.6 0 1
634269 93.202 -5.63892e+06 1 0.6 0 1
634271 93.202 -5.63892e+06 1 0.6 0 1
634270 93.202 -5.63892e+06 1 0.6 0 1
634270 93.202 -5.63892e+06 1 0.6 0 1
634269 95.4872 -5.63893e+06 1 0.6 0 1
634271 95.4872 -5.63893e+06 1 0.6 0 1
634270 95.4872 -5.63893e+06 1 0.6 0 1
634270 95.4872 -5.63893e+06 1 0.6 0 1
634269 97.3372 -5.63894e+06 1 0.6 0 1
634271 97.3372 -5.63894e+06 1 0.6 0 1
634270 97.3372 -5.63894e+06 1 0.6 0 1
634270 97.3372 -5.63894e+06 1 0.6 0 1
634269 96.2395 -5.63895e+06 1 0.6 0 1
634271 96.2395 -5.63895e+06 1 0.6 0 1
634270 96.2395 -5.63895e+06 1 0.6 0 1
634270 96.2395 -5.63895e+06 1 0.6 0 1
634279 94.4299 -5.63892e+06 1 0.6 0 1
634281 94.4299 -5.63892e+06 1 0.6 0 1
634280 94.4299 -5.63892e+06 1 0.6 0 1
634280 94.4299 -5.63892e+06 1 0.6 0 1
634279 97.9994 -5.63893e+06 1 0.6 0 1
634281 97.9994 -5.63893e+06 1 0.6 0 1
634280 97.9994 -5.63893e+06 1 0.6 0 1
634280 97.9994 -5.63893e+06 1 0.6 0 1
634279 98.3645 -5.63894e+06 1 0.6 0 1
634281 98.3645 -5.63894e+06 1 0.6 0 1
634280 98.3645 -5.63894e+06 1 0.6 0 1
634280 98.3645 -5.63894e+06 1 0.6 0 1
634279 95.5858 -5.63895e+06 1 0.6 0 1
634281 95.5858 -5.63895e+06 1 0.6 0 1
634280 95.5858 -5.63895e+06 1 0.6 0 1
634280 95.5858 -5.63895e+06 1 0.6 0 1
634289 94.2656 -5.63892e+06 1 0.6 0 1
634291 94.2656 -5.63892e+06 1 0.6 0 1
634290 94.2656 -5.63892e+06 1 0.6 0 1
634290 94.2656 -5.63892e+06 1 0.6 0 1
634289 98.228 -5.63893e+06 1 0.6 0 1
634291 98.228 -5.63893e+06 1 0.6 0 1
634290 98.228 -5.63893e+06 1 0.6 0 1
634290 98.228 -5.63893e+06 1 0.6 0 1
634289 95.0875 -5.63894e+06 1 0.6 0 1
634291 95.0875 -5.63894e+06 1 0.6 0 1
634290 95.0875 -5.63894e+06 1 0.6 0 1
634290 95.0875 -5.63894e+06 1 0.6 0 1
634289 91.3612 -5.63895e+06 1 0.6 0 1
634291 91.3612 -5.63895e+06 1 0.6 0 1
634290 91.3612 -5.63895e+06 1 0.6 0 1
634290 91.3612 -5.63895e+06 1 0.6 0 1
634299 93.9725 -5.63892e+06 1 0.6 0 1
634301 93.9725 -5.63892e+06 1 0.6 0 1
634300 93.9725 -5.63892e+06 1 0.6 0 1
634300 93.9725 -5.63892e+06 1 0.6 0 1
634299 94.3235 -5.63893e+06 1 0.6 0 1
634301 94.3235 -5.63893e+06 1 0.6 0 1
634300 94.3235 -5.63893e+06 1 0.6 0 1
634300 94.3235 -5.63893e+06 1 0.6 0 1
634299 92.8199 -5.63894e+06 1 0.6 0 1
634301 92.8199 -5.63894e+06 1 0.6 0 1
634300 92.8199 -5.63894e+06 1 0.6 0 1
634300 92.8199 -5.63894e+06 1 0.6 0 1
634309 93.49 -5.63892e+06 1 0.6 0 1
634311 93.49 -5.63892e+06 1 0.6 0 1
634310 93.49 -5.63892e+06 1 0.6 0 1
634310 93.49 -5.63892e+06 1 0.6 0 1
634309 94.8776 -5.63893e+06 1 0.6 0 1
634311 94.8776 -5.63893e+06 1 0.6 0 1
634310 94.8776 -5.63893e+06 1 0.6 0 1
634310 94.8776 -5.63893e+06 1 0.6 0 1
634319 92.6129 -5.63893e+06 1 0.6 0 1
634321 92.6129 -5.63893e+06 1 0.6 0 1
634320 92.6129 -5.63893e+06 1 0.6 0 1
634320 92.6129 -5.63893e+06 1 0.6 0 1
2 0 1
2 2 3
2 4 5
2 6 7
2 8 9
2 10 11
2 12 13
2 14 15
2 16 17
2 18 19
2 20 21
2 22 23
2 24 25
2 26 27
2 28 29
2 30 31
2 32 33
2 34 35
2 36 37
2 38 39
2 40 41
2 42 43
2 44 45
2 46 47
2 48 49
2 50 51
2 52 53
2 54 55
2 56 57
2 58 59
2 60 61
2 62 63
2 64 65
2 66 67
2 68 69
2 70 71
2 72 73
2 74 75
2 76 77
2 78 79
2 80 81
2 82 83
2 84 85
2 86 87
2 88 89
2 90 91
2 92 93
2 94 95
